<svg width="12" height="12" viewBox="0 0 12 12" fill="none" xmlns="http://www.w3.org/2000/svg">
<path d="M11 5.00019H3.40999L6.70999 1.71019C6.89829 1.52188 7.00408 1.26649 7.00408 1.00019C7.00408 0.733884 6.89829 0.478489 6.70999 0.290185C6.52168 0.101882 6.26629 -0.00390625 5.99999 -0.00390625C5.73369 -0.00390625 5.47829 0.101882 5.28999 0.290185L0.289988 5.29019C0.198947 5.38529 0.127582 5.49743 0.0799879 5.62019C-0.0200301 5.86365 -0.0200301 6.13672 0.0799879 6.38019C0.127582 6.50294 0.198947 6.61508 0.289988 6.71019L5.28999 11.7102C5.38295 11.8039 5.49355 11.8783 5.61541 11.9291C5.73727 11.9798 5.86798 12.006 5.99999 12.006C6.132 12.006 6.26271 11.9798 6.38456 11.9291C6.50642 11.8783 6.61702 11.8039 6.70999 11.7102C6.80372 11.6172 6.87811 11.5066 6.92888 11.3848C6.97965 11.2629 7.00579 11.1322 7.00579 11.0002C7.00579 10.8682 6.97965 10.7375 6.92888 10.6156C6.87811 10.4937 6.80372 10.3831 6.70999 10.2902L3.40999 7.00019H11C11.2652 7.00019 11.5196 6.89483 11.7071 6.70729C11.8946 6.51976 12 6.2654 12 6.00019C12 5.73497 11.8946 5.48062 11.7071 5.29308C11.5196 5.10554 11.2652 5.00019 11 5.00019Z" fill="#545B67"/>
</svg>
