<svg width="32" height="32" viewBox="0 0 32 32" fill="none" xmlns="http://www.w3.org/2000/svg">
<path d="M16 6.66683C14.154 6.66683 12.3495 7.21422 10.8147 8.23978C9.27981 9.26534 8.08353 10.723 7.37711 12.4284C6.67069 14.1339 6.48586 16.0105 6.84599 17.821C7.20612 19.6315 8.09503 21.2945 9.40032 22.5998C10.7056 23.9051 12.3687 24.794 14.1791 25.1542C15.9896 25.5143 17.8663 25.3295 19.5717 24.623C21.2771 23.9166 22.7348 22.7203 23.7604 21.1855C24.7859 19.6506 25.3333 17.8461 25.3333 16.0002C25.3333 13.5248 24.35 11.1508 22.5996 9.4005C20.8493 7.65016 18.4753 6.66683 16 6.66683ZM16 22.6668C14.6814 22.6668 13.3925 22.2758 12.2962 21.5433C11.1999 20.8108 10.3454 19.7696 9.84079 18.5514C9.33621 17.3332 9.20418 15.9928 9.46142 14.6996C9.71865 13.4064 10.3536 12.2185 11.2859 11.2861C12.2183 10.3538 13.4062 9.71883 14.6994 9.46159C15.9926 9.20436 17.333 9.33638 18.5512 9.84097C19.7694 10.3455 20.8106 11.2 21.5431 12.2964C22.2757 13.3927 22.6667 14.6816 22.6667 16.0002C22.6667 17.7683 21.9643 19.464 20.714 20.7142C19.4638 21.9644 17.7681 22.6668 16 22.6668ZM16 12.0002C15.2089 12.0002 14.4355 12.2348 13.7777 12.6743C13.1199 13.1138 12.6072 13.7385 12.3045 14.4694C12.0017 15.2003 11.9225 16.0046 12.0768 16.7805C12.2312 17.5564 12.6121 18.2692 13.1716 18.8286C13.731 19.388 14.4437 19.769 15.2196 19.9233C15.9955 20.0776 16.7998 19.9984 17.5307 19.6957C18.2616 19.3929 18.8863 18.8802 19.3259 18.2224C19.7654 17.5646 20 16.7913 20 16.0002C20 14.9393 19.5786 13.9219 18.8284 13.1717C18.0783 12.4216 17.0609 12.0002 16 12.0002ZM16 17.3335C15.7363 17.3335 15.4785 17.2553 15.2592 17.1088C15.04 16.9623 14.8691 16.754 14.7681 16.5104C14.6672 16.2668 14.6408 15.9987 14.6923 15.74C14.7437 15.4814 14.8707 15.2438 15.0572 15.0574C15.2436 14.8709 15.4812 14.7439 15.7399 14.6924C15.9985 14.641 16.2666 14.6674 16.5102 14.7683C16.7539 14.8692 16.9621 15.0401 17.1086 15.2594C17.2551 15.4787 17.3333 15.7365 17.3333 16.0002C17.3333 16.3538 17.1928 16.6929 16.9428 16.943C16.6927 17.193 16.3536 17.3335 16 17.3335ZM16 1.3335C13.0992 1.3335 10.2635 2.19368 7.85162 3.80527C5.4397 5.41687 3.55984 7.70749 2.44975 10.3875C1.33967 13.0675 1.04922 16.0164 1.61514 18.8615C2.18105 21.7065 3.57792 24.3199 5.62909 26.3711C7.68026 28.4222 10.2936 29.8191 13.1387 30.385C15.9837 30.9509 18.9327 30.6605 21.6127 29.5504C24.2927 28.4403 26.5833 26.5604 28.1949 24.1485C29.8065 21.7366 30.6667 18.901 30.6667 16.0002C30.6667 12.1103 29.1214 8.3798 26.3709 5.62926C23.6204 2.87873 19.8898 1.3335 16 1.3335ZM16 28.0002C13.6266 28.0002 11.3065 27.2964 9.33314 25.9778C7.35975 24.6592 5.82168 22.7851 4.91343 20.5924C4.00518 18.3997 3.76754 15.9869 4.23056 13.6591C4.69359 11.3313 5.83647 9.19311 7.5147 7.51488C9.19293 5.83665 11.3311 4.69376 13.6589 4.23074C15.9867 3.76772 18.3995 4.00536 20.5922 4.91361C22.7849 5.82186 24.659 7.35993 25.9776 9.33332C27.2962 11.3067 28 13.6268 28 16.0002C28 19.1828 26.7357 22.235 24.4853 24.4854C22.2348 26.7359 19.1826 28.0002 16 28.0002Z" fill="#EDCB50"/>
</svg>
